<?xml version="1.0" encoding="UTF-8" standalone="no"?>
<svg width="264px" height="88px" viewBox="0 0 264 88" version="1.1" xmlns="http://www.w3.org/2000/svg" xmlns:xlink="http://www.w3.org/1999/xlink">
    <!-- Generator: Sketch 3.8.3 (29802) - http://www.bohemiancoding.com/sketch -->
    <title>default-skin</title>
    <desc>Created with Sketch.</desc>
    <defs></defs>
    <g id="Page-1" stroke="none" stroke-width="1" fill="none" fill-rule="evenodd">
        <g id="default-skin">
            <path d="M67.0018835,59.5 L67.0018835,63.268331 C60.6953142,64.1065038 57.8175182,69.0186795 57,73 C59.2189781,70.171167 62.5639273,67.9024591 67.0018835,67.9024591 L67.0018835,71.5 L73,65.5853951 L67.0018835,59.5 Z" id="Shape" fill="#FFFFFF"></path>
            <g id="Group" transform="translate(13.000000, 15.000000)" fill="#FFFFFF">
                <polygon id="Shape" points="0 14 0 9 2 9 2 12 5 12 5 14"></polygon>
                <polygon id="Shape" points="0 0 5 0 5 2 2 2 2 5 0 5"></polygon>
                <path d="M18,0 L18,5 L16,5 L16,2 L15.2629743,2 L13,2 L13,0 L18,0 Z" id="Shape"></path>
                <polygon id="Shape" points="18 14 13 14 13 12 16 12 16 9 18 9"></polygon>
            </g>
            <g id="Group-4" transform="translate(57.000000, 15.000000)" fill="#FFFFFF">
                <polygon id="Shape" transform="translate(2.500000, 11.500000) rotate(-180.000000) translate(-2.500000, -11.500000) " points="0 14 0 9 2 9 2 12 5 12 5 14"></polygon>
                <polygon id="Shape" transform="translate(2.500000, 2.500000) rotate(-180.000000) translate(-2.500000, -2.500000) " points="0 0 5 0 5 2 2 2 2 5 0 5"></polygon>
                <path d="M18,0 L18,5 L16,5 L16,2 L15.2629743,2 L13,2 L13,0 L18,0 Z" id="Shape" transform="translate(15.500000, 2.500000) rotate(-180.000000) translate(-15.500000, -2.500000) "></path>
                <polygon id="Shape" transform="translate(15.500000, 11.500000) rotate(-180.000000) translate(-15.500000, -11.500000) " points="18 14 13 14 13 12 16 12 16 9 18 9"></polygon>
            </g>
            <path d="M21,65 L21,57 L23,57 L23,65 L31,65 L31,67 L23,67 L23,75 L21,75 L21,67 L13,67 L13,65 L21,65 Z" id="Rectangle-13" fill="#FFFFFF" transform="translate(22.000000, 66.000000) rotate(-45.000000) translate(-22.000000, -66.000000) "></path>
            <polyline id="Path-12" stroke="#FFFFFF" stroke-width="2" points="110 53 115 59.5 110 66"></polyline>
            <polyline id="Path-12" stroke="#FFFFFF" stroke-width="2" transform="translate(151.500000, 59.500000) scale(-1, 1) translate(-151.500000, -59.500000) " points="149 53 154 59.5 149 66"></polyline>
            <g id="Group-2" transform="translate(147.000000, 16.000000)">
                <rect id="Rectangle-11" fill="#FFFFFF" transform="translate(11.767767, 11.767767) scale(-1, 1) rotate(-45.000000) translate(-11.767767, -11.767767) " x="9.67157286" y="10.767767" width="4.59619409" height="2"></rect>
                <path d="M5.5,11 C8.53756612,11 11,8.53756612 11,5.5 C11,2.46243388 8.53756612,0 5.5,0 C2.46243388,0 0,2.46243388 0,5.5 C0,8.53756612 2.46243388,11 5.5,11 Z" id="Oval-1" stroke="#FFFFFF" stroke-width="1.5"></path>
                <rect id="Rectangle-12" fill="#FFFFFF" x="3" y="5" width="5" height="1"></rect>
            </g>
            <g id="Group-3" transform="translate(103.000000, 16.000000)">
                <polygon id="Rectangle-11" fill="#FFFFFF" points="9.32690296 10.625 9.32690296 12.625 13.923097 12.625 13.923097 10.625"></polygon>
                <path d="M5.5,11 C8.53756612,11 11,8.53756612 11,5.5 C11,2.46243388 8.53756612,0 5.5,0 C2.46243388,0 0,2.46243388 0,5.5 C0,8.53756612 2.46243388,11 5.5,11 Z" id="Oval-1" stroke="#FFFFFF" stroke-width="1.5"></path>
                <rect id="Rectangle-17" fill="#FFFFFF" x="3" y="5" width="5" height="1"></rect>
                <rect id="Rectangle-16" fill="#FFFFFF" transform="translate(5.500000, 5.500000) rotate(-269.000000) translate(-5.500000, -5.500000) " x="3" y="5" width="5" height="1"></rect>
            </g>
        </g>
    </g>
</svg>